<?xml version="1.0" encoding="UTF-8"?>
<svg id="Layer_1" xmlns="http://www.w3.org/2000/svg" xmlns:xlink="http://www.w3.org/1999/xlink" version="1.1" viewBox="0 0 500 500">
  <!-- Generator: Adobe Illustrator 30.2.1, SVG Export Plug-In . SVG Version: 2.1.1 Build 1)  -->
  <defs>
    <clipPath id="clippath">
      <rect y="0" width="500" height="500" fill="none"/>
    </clipPath>
  </defs>
  <g clip-path="url(#clippath)">
    <rect y="0" width="500" height="500" fill="#e5bc30" stroke="#231f20" stroke-linecap="round" stroke-miterlimit="10" stroke-width="1.6"/>
    <g>
      <line x1="481.045" y1="-40.66" x2="527.881" y2="70.448" fill="#fcdb40" stroke="#231f20" stroke-linecap="round" stroke-miterlimit="10" stroke-width="1.6"/>
      <path d="M481.046-40.658c-71.039,30.779-135.489,78.331-176.279,132.841-40.79,54.509-56.852,115.577-40.446,164.666,2.72-11.513,5.566-23.311,13.211-34.602,7.699-11.372,19.714-21.404,31.859-30.866,63.913-49.795,138.73-91.299,217.077-120.421" fill="#fcdb40" stroke="#231f20" stroke-linecap="round" stroke-miterlimit="10" stroke-width="1.6"/>
    </g>
    <circle cx="76.271" cy="157.417" r="33.522" fill="#fcdb40" stroke="#231f20" stroke-linecap="round" stroke-miterlimit="10" stroke-width="1.6"/>
    <rect x="145.078" y="258.121" width="13.874" height="304.009" transform="translate(-257.881 562.761) rotate(-90.087)" fill="#fcdb40" stroke="#231f20" stroke-linecap="round" stroke-miterlimit="10" stroke-width="1.6"/>
    <path d="M19.094,150.841c-5.247,105.816-.565,184.699,13.816,194.841,4.787,3.375,9.839,5.305,9.84,5.305,3.886,1.484,10.673,3.426,36.631-.083,13.329-1.802,19.093-3.336,19.892-6.701.685-2.886-2.597-5.829-.941-8.66.919-1.571,2.994-2.5,4.707-2.296,4.067.484,7.269,7.498,6.687,13.381-.633,6.405-5.633,10.287-6.868,11.246-5.075,3.94-10.799,4.398-13.433,4.562-33.923,2.116-50.884,3.175-61.311-3.012-21.268-12.619-21.479-54.925-21.901-139.538-.012-2.334-.138-30.732-.135-68.454,0-.062,0-.094,0-.094,1.222-.157,2.492-.289,3.808-.388,3.309-.249,6.394-.254,9.209-.109Z" fill="#fcdb40" stroke="#231f20" stroke-linecap="round" stroke-miterlimit="10" stroke-width="1.6"/>
    <rect y="0" width="500" height="500" fill="none" stroke="#231f20" stroke-linecap="round" stroke-miterlimit="10" stroke-width="1.6"/>
  </g>
  <path d="M500,500H0V0h500v493.393c0,.323,0,6.607,0,6.607Z" fill="none" stroke="#231f20" stroke-linecap="round" stroke-miterlimit="10" stroke-width="3.2"/>
</svg>